<svg id="Capa_1" enable-background="new 0 0 512 512" height="512" viewBox="0 0 512 512" width="512" xmlns="http://www.w3.org/2000/svg"><g><path d="m512 77.5v434.5h-512v-383.67l20-71.33h472z" fill="#f0f9ff"/><path d="m512 77.5v434.5h-256v-455h236z" fill="#bce4f4"/><path d="m512 0v77.5h-218l-38 50.83h-256v-128.33z" fill="#bde239"/><path d="m110.292 47.5h30v30h-30z" fill="#f0f9ff"/><path d="m171.833 47.5h30v30h-30z" fill="#f0f9ff"/><path d="m512 0v77.5h-218l-38 50.83v-128.33z" fill="#8bbc43"/><path d="m319.64 221.9-63.64 139.25-37.36 81.75-27.28-12.47 64.64-141.44 36.36-79.56z" fill="#5862be"/><g><path d="m163.729 439.387h-18.519c-25.663 0-46.542-20.879-46.542-46.542v-31.797l-40.663-38.661 40.663-38.66v-31.798c0-25.663 20.879-46.542 46.542-46.542h18.519v30h-18.519c-9.121 0-16.542 7.421-16.542 16.542v44.671l-27.124 25.787 27.124 25.788v44.67c0 9.121 7.421 16.542 16.542 16.542h18.519z" fill="#5862be"/><path d="m366.79 439.387h-18.519v-30h18.519c9.121 0 16.542-7.421 16.542-16.542v-44.67l27.124-25.788-27.124-25.787v-44.671c0-9.121-7.421-16.542-16.542-16.542h-18.519v-30h18.519c25.663 0 46.542 20.879 46.542 46.542v31.798l40.663 38.66-40.663 38.661v31.797c0 25.663-20.879 46.542-46.542 46.542z" fill="#393d9d"/></g><path d="m48.75 47.5h30v30h-30z" fill="#fe4945"/><path d="m319.64 221.9-63.64 139.25v-72.16l36.36-79.56z" fill="#393d9d"/></g></svg>