<svg xmlns="http://www.w3.org/2000/svg" xmlns:xlink="http://www.w3.org/1999/xlink" id="Capa_1" x="0" y="0" version="1.1" viewBox="0 0 512 512" xml:space="preserve" style="enable-background:new 0 0 512 512"><style type="text/css">.st0{fill:#33deac}</style><g><g><path d="M20.4,184.2c-5.3-1.4-10.8,1.8-12.2,7.1c-0.1,0.5-0.3,1-0.4,1.5c-1.4,5.4,1.9,10.8,7.2,12.2 c0.8,0.2,1.7,0.3,2.5,0.3c4.5,0,8.5-3,9.7-7.5l0.3-1.3C29,191.1,25.8,185.6,20.4,184.2z" class="st0"/></g></g><g><g><path d="M338.4,13.5C311.9,4.6,284.2,0,256,0c-49.5,0-97.5,14.1-138.9,40.9C76.8,67,44.7,103.7,24.3,147 c-2.4,5-0.2,11,4.8,13.3c1.4,0.6,2.8,1,4.3,1c3.8,0,7.3-2.1,9.1-5.7c18.1-38.4,46-70.4,79.8-93.7c0.3,0.2,0.7,0.3,1,0.5l61.1,23.2 c1.4,0.5,2.4,1.9,2.3,3.5c0,1.2,0.1,2.5,0.5,3.6c3.3,9.5,10.5,17.1,19.8,20.8c9.3,3.7,19.8,3.3,28.7-1.3c0,0,0.1,0,0.1-0.1l13.3-7 c14.8-7.8,31.8-6.8,45.6,2.6c13.8,9.4,20.9,25,18.9,41.6l-0.1,1.1c-0.7,6.4-5.2,11.5-11.3,13c-6.6,1.6-14.1,3.4-20.6,4.9 c-13.1,3.1-23.2,13.7-25.9,26.8l-8.6,42.5c-2,10,0.4,20.3,6.8,28.3c6.3,8,15.8,12.8,26,13.2l11,0.4c1.9,0.1,3.7,0.5,5.5,1.3 c1.3,0.6,2.7,0.9,4.1,0.9c3.8,0,7.5-2.2,9.1-5.9c2.3-5,0-11-5-13.2c-4.1-1.8-8.4-2.8-12.9-3l-11-0.4c-4.3-0.2-8.3-2.2-11-5.6 c-2.7-3.4-3.7-7.8-2.9-12l8.6-42.5c1.1-5.6,5.4-10,11-11.4c6.4-1.5,13.9-3.3,20.5-4.9c14.2-3.4,24.9-15.5,26.6-30.1l0.1-1.1 c2.8-24.1-7.5-46.7-27.5-60.4c-20-13.7-44.8-15.1-66.2-3.8l-13.2,7c-3.8,1.9-8.1,2.1-12.1,0.5c-3.6-1.4-6.3-4.1-7.9-7.5 c-0.6-9.1-6.4-17.2-15.1-20.5l-47.8-18.2C177.7,30.2,216.1,20,256,20c26,0,51.6,4.2,75.9,12.5c5.2,1.8,10.9-1,12.7-6.3 C346.4,21,343.6,15.3,338.4,13.5z" class="st0"/></g></g><g><g><path d="M502.1,185.1c-1.5-5.3-7.1-8.4-12.4-6.8c-5.3,1.5-8.4,7.1-6.8,12.4c6.1,21.1,9.2,43.1,9.2,65.4 c0,24.2-3.6,48.1-10.8,70.9c-1.7,5.3,1.3,10.9,6.5,12.5c1,0.3,2,0.5,3,0.5c4.3,0,8.2-2.7,9.5-7C508,308.1,512,282.2,512,256 C512,231.9,508.7,208.1,502.1,185.1z" class="st0"/></g></g><g><g><path d="M474.1,370.5c-4.2-2.5-10.5-1.8-13.8,3.7c0,0,0,0.1-0.1,0.1c-3.2,5.5-0.8,11.4,3.5,13.9 c1.5,0.9,3.3,1.4,5.1,1.4c3.3,0,6.6-1.6,8.7-5.1C480.7,378.9,478.3,373,474.1,370.5z" class="st0"/></g></g><g><g><path d="M446,412.6c-4.1-3.7-10.4-3.3-14.1,0.8c-13.7,15.3-29.1,28.5-45.9,39.6c-11.5-5.2-23.6-17.6-22.4-36.9 l6.3-74.7c0.5-5.5-3.6-10.3-9.1-10.8c-5.5-0.4-10.3,3.6-10.8,9.1l-6.3,74.9c0,0.1,0,0.1,0,0.2c-1.3,19.8,7.6,38.3,22.9,49.8 C332.7,482.3,294.9,492,256,492c-10.9,0-21.7-0.8-32.4-2.2l9.3-16.9h8.2c21.2,0,38.4-17.2,38.4-38.4v-13.8c0-3.9,1.2-7.7,3.5-10.9 c3.3-4.5,2.3-10.7-2.2-14c-4.5-3.3-10.7-2.3-14,2.2c-4.8,6.6-7.4,14.5-7.4,22.7v13.8c0,10.2-8.3,18.4-18.4,18.4H227 c-3.6,0-7,2-8.8,5.2l-15.4,27.9c-21.6-5-42.4-13-61.8-23.8c-4.8-2.7-10.9-1-13.6,3.9s-1,10.9,3.9,13.6 c37.9,21.2,81,32.4,124.7,32.4c72.7,0,142.3-31.1,190.8-85.3C450.5,422.6,450.1,416.2,446,412.6z" class="st0"/></g></g><g><g><path d="M428.2,42.9C404.9,42.9,386,61.8,386,85s18.9,42.1,42.1,42.1s42.1-18.9,42.1-42.1 C470.3,61.8,451.4,42.9,428.2,42.9z M428.2,107.1C416,107.1,406,97.2,406,85s9.9-22.1,22.1-22.1s22.1,9.9,22.1,22.1 S440.4,107.1,428.2,107.1z" class="st0"/></g></g><g><g><path d="M244.2,339.9l-43.8-63.1c-0.5-0.7-1-1.2-1.6-1.7c-11.1-43.6-50.8-76-97.9-76c-55.7,0-101,45.3-101,101 c0,23.1,8,45.6,22.5,63.5c0,0,0,0.1,0.1,0.1l70.6,90.5c1.9,2.4,4.8,3.8,7.9,3.8s6-1.4,7.9-3.8l70.2-90c0.1-0.2,0.3-0.4,0.4-0.5 c11.8-14.5,19.3-32.1,21.6-50.6l26.6,38.3c1.9,2.8,5.1,4.3,8.2,4.3c2,0,4-0.6,5.7-1.8C246.2,350.7,247.4,344.5,244.2,339.9z M163.5,351.6c-0.3,0.3-0.5,0.6-0.7,1L101,431.7l-62.5-80.1c-0.1-0.1-0.2-0.3-0.3-0.4C26.5,336.8,20,318.7,20,300.1 c0-44.7,36.3-81,81-81s81,36.3,81,81C182,318.9,175.4,337.2,163.5,351.6z" class="st0"/></g></g><g><g><path d="M101,243.5c-32,0-58,26-58,58s26,58,58,58s58-26,58-58S133,243.5,101,243.5z M101,339.5c-21,0-38-17-38-38 s17-38,38-38s38,17,38,38S122,339.5,101,339.5z" class="st0"/></g></g><g><g><path d="M428.2,0c-46.2,0-83.8,37.6-83.8,83.8c0,19.1,6.6,37.8,18.6,52.7c0,0,0,0.1,0.1,0.1l57.3,73.4 c1.9,2.4,4.8,3.8,7.9,3.8c0,0,0,0,0,0c3.1,0,6-1.4,7.9-3.8l57-73c0.1-0.2,0.2-0.3,0.4-0.5c12-14.9,18.6-33.5,18.6-52.7 C512,37.6,474.4,0,428.2,0z M477.4,124.5c-0.2,0.3-0.5,0.6-0.7,0.9l-48.6,62.2L379,124.5c-0.1-0.1-0.2-0.3-0.3-0.4 c-9.2-11.3-14.3-25.6-14.3-40.3c0-35.2,28.6-63.8,63.8-63.8S492,48.6,492,83.8C492,98.6,486.8,113.1,477.4,124.5z" class="st0"/></g></g><g><g><path d="M203.3,417.3c-2.4-5-8.3-7.1-13.3-4.8l-4.5,2.1c-5,2.4-7.1,8.3-4.8,13.3c1.7,3.6,5.3,5.7,9,5.7 c1.4,0,2.9-0.3,4.3-1l4.5-2.1C203.5,428.2,205.6,422.3,203.3,417.3z" class="st0"/></g></g><g><g><path d="M428.2,254.1c-5.5,0-10,4.5-10,10c0,1.3-0.1,2.6-0.2,3.9c-0.6,5.5,3.3,10.4,8.8,11.1c0.4,0,0.8,0.1,1.1,0.1 c5,0,9.3-3.8,9.9-8.9c0.2-2,0.3-4.1,0.3-6.1C438.2,258.6,433.7,254.1,428.2,254.1z" class="st0"/></g></g><g><g><path d="M363.3,298h-5c-5.5,0-10,4.5-10,10s4.5,10,10,10h5c5.5,0,10-4.5,10-10S368.8,298,363.3,298z" class="st0"/></g></g><g><g><path d="M415.6,296.4c-2.9-4.7-9-6.2-13.7-3.3c-1.1,0.7-2.2,1.3-3.4,1.8c-5,2.3-7.2,8.3-4.9,13.3 c1.7,3.7,5.3,5.8,9.1,5.8c1.4,0,2.8-0.3,4.2-0.9c1.9-0.9,3.7-1.8,5.4-2.9C417,307.3,418.5,301.1,415.6,296.4z" class="st0"/></g></g><g><g><path d="M264.9,356.4c-4.7-3-10.8-1.6-13.8,3.1l-2.7,4.2c-3,4.7-1.6,10.8,3.1,13.8c1.7,1.1,3.5,1.6,5.4,1.6 c3.3,0,6.5-1.6,8.4-4.6l2.7-4.2C270.9,365.6,269.5,359.4,264.9,356.4z" class="st0"/></g></g><g><g><path d="M289,318.5c-4.7-3-10.8-1.6-13.8,3.1l-2.7,4.2c-3,4.7-1.6,10.8,3.1,13.8c1.7,1.1,3.5,1.6,5.4,1.6 c3.3,0,6.5-1.6,8.4-4.6l2.7-4.2C295,327.6,293.7,321.4,289,318.5z" class="st0"/></g></g><g><g><path d="M243.9,398.1c-2.4-5-8.3-7.1-13.3-4.8l-4.5,2.1c-5,2.4-7.1,8.3-4.8,13.3c1.7,3.6,5.3,5.7,9,5.7 c1.4,0,2.9-0.3,4.3-1l4.5-2.1C244.2,409,246.3,403.1,243.9,398.1z" class="st0"/></g></g><g><g><path d="M318.3,298h-5c-5.5,0-10,4.5-10,10s4.5,10,10,10h5c5.5,0,10-4.5,10-10S323.8,298,318.3,298z" class="st0"/></g></g></svg>