<svg xmlns="http://www.w3.org/2000/svg" xmlns:xlink="http://www.w3.org/1999/xlink" id="Capa_1" x="0" y="0" version="1.1" viewBox="0 0 512 512" xml:space="preserve" style="enable-background:new 0 0 512 512"><style type="text/css">.st0{fill:#33d3a5}</style><g><path d="M504.5,324.1c4.1,0,7.5-3.4,7.5-7.5V200.3c0-2.4-1.1-4.6-3-6l-85.5-63.5V38.3c0-18.8-15.3-34.2-34.2-34.2 H266.9c-4.1,0-7.5,3.4-7.5,7.5s3.4,7.5,7.5,7.5h122.4c10.6,0,19.2,8.6,19.2,19.2v236.3l-77.7,68.2c-30.9,0.2-131,0-149,0 l-78.3-68.5v-236c0-10.6,8.6-19.2,19.2-19.2h111.6c4.1,0,7.5-3.4,7.5-7.5s-3.4-7.5-7.5-7.5H122.7c-18.8,0-34.2,15.3-34.2,34.2V127 L2.9,194.4C1.1,195.9,0,198,0,200.3v270c0,10.2,4.3,20.2,11.7,27.2c7,6.6,16.2,10.3,25.8,10.3h437c9.6,0,18.8-3.7,25.8-10.3 c7.4-7,11.7-17,11.7-27.2v-121c0-4.1-3.4-7.5-7.5-7.5s-7.5,3.4-7.5,7.5v121c0,3.9-1,7.6-2.8,10.9L345,350.3l152-133.4v99.7 C497,320.8,500.4,324.1,504.5,324.1L504.5,324.1z M423.5,149.5l69.1,51.3l-69.1,60.7V149.5z M88.5,261.2l-69.3-60.6l69.3-54.5 V261.2z M37.5,492.8c-2.9,0-5.7-0.5-8.3-1.6l86.9-76c3.1-2.7,3.4-7.5,0.7-10.6c-2.7-3.1-7.5-3.4-10.6-0.7l-88.4,77.3 c-1.8-3.3-2.8-7-2.8-10.9V216.9l76.1,66.5l0,0l76.5,66.9l-28.6,25c-1.6,1.4-2.6,3.5-2.6,5.7c0,4.1,3.4,7.5,7.5,7.5 c2,0,3.7-0.7,5.1-2l32.8-28.7c18.1,0,118,0.2,149.1,0l152,133.4c-2.6,1-5.4,1.6-8.3,1.6L37.5,492.8L37.5,492.8z" class="st0"/><path d="M186.2,283.6c14.1,0,25.5-11.5,25.5-25.5v-54.6h8.3l70,35c2.2,10.1,11.2,17.6,22,17.6 c12.4,0,22.5-10.1,22.5-22.5V83.2c0-12.4-10.1-22.5-22.5-22.5c-10.7,0-19.7,7.6-22,17.6l-70,35h-50.8c-24.9,0-45.1,20.2-45.1,45.1 c0,21.9,15.8,40.3,36.6,44.3V258C160.6,272.1,172.1,283.6,186.2,283.6z M196.7,258c0,5.8-4.7,10.5-10.5,10.5s-10.5-4.7-10.5-10.5 v-54.6h21.1V258z M311.9,75.7c4.2,0,7.5,3.4,7.5,7.5v150.3c0,4.2-3.4,7.5-7.5,7.5s-7.5-3.4-7.5-7.5V83.2 C304.4,79.1,307.7,75.7,311.9,75.7L311.9,75.7z M289.4,221.4l-60.1-30.1v-65.9l60.1-30.1V221.4z M139.1,158.3 c0-16.6,13.5-30.1,30.1-30.1h45.1v60.1h-10h-35.1C152.5,188.4,139.1,174.9,139.1,158.3z" class="st0"/><path d="M385.7,82c-2.9-2.9-7.7-2.9-10.6,0L347.1,110c-2.9,2.9-2.9,7.7,0,10.6c1.5,1.5,3.4,2.2,5.3,2.2 s3.8-0.7,5.3-2.2l28.1-28.1C388.7,89.7,388.7,84.9,385.7,82L385.7,82z" class="st0"/><path d="M347.1,207.3l28.1,28.1c1.5,1.5,3.4,2.2,5.3,2.2c1.9,0,3.8-0.7,5.3-2.2c2.9-2.9,2.9-7.7,0-10.6l-28.1-28.1 c-2.9-2.9-7.7-2.9-10.6,0S344.2,204.4,347.1,207.3L347.1,207.3z" class="st0"/><path d="M380.4,150.9h-28.1c-4.1,0-7.5,3.4-7.5,7.5s3.4,7.5,7.5,7.5h28.1c4.1,0,7.5-3.4,7.5-7.5 S384.6,150.9,380.4,150.9z" class="st0"/></g></svg>