<svg xmlns="http://www.w3.org/2000/svg" xmlns:xlink="http://www.w3.org/1999/xlink" id="Capa_1" x="0" y="0" version="1.1" viewBox="0 0 480.098 480.098" xml:space="preserve" style="enable-background:new 0 0 480.098 480.098"><path style="fill:#5a6470" d="M472.098,452.049h-464c-4.418,0-8-3.582-8-8s3.582-8,8-8h456v-368c0-4.418,3.582-8,8-8s8,3.582,8,8	v376C480.098,448.467,476.517,452.049,472.098,452.049z"/><path style="fill:#fdbd40" d="M48.098,236.049h96v176h-96V236.049z"/><path style="fill:#e9686a" d="M192.098,140.049h96v272h-96V140.049z"/><path style="fill:#238892" d="M336.098,60.049h96v352h-96V60.049z"/><path style="fill:#e9686a" d="M168.098,36.049l26.344,26.344l-66.344,66.344l-18.344-18.344c-3.124-3.123-8.188-3.123-11.312,0	l-96,96c-3.178,3.069-3.266,8.134-0.197,11.312s8.134,3.266,11.312,0.197c0.067-0.064,0.132-0.13,0.197-0.197l90.344-90.344	l18.344,18.344c3.124,3.123,8.188,3.123,11.312,0l72-72l26.344,26.344l8-72L168.098,36.049z"/><g><path style="fill:#fff" d="M80.098,388.049c-4.418,0-8-3.582-8-8v-16c0-4.418,3.582-8,8-8s8,3.582,8,8v16 C88.098,384.467,84.517,388.049,80.098,388.049z"/><path style="fill:#fff" d="M80.098,340.049c-4.418,0-8-3.582-8-8v-32c0-4.418,3.582-8,8-8s8,3.582,8,8v32 C88.098,336.467,84.517,340.049,80.098,340.049z"/><path style="fill:#fff" d="M224.098,388.049c-4.418,0-8-3.582-8-8v-16c0-4.418,3.582-8,8-8s8,3.582,8,8v16 C232.098,384.467,228.517,388.049,224.098,388.049z"/><path style="fill:#fff" d="M224.098,340.049c-4.418,0-8-3.582-8-8v-80c0-4.418,3.582-8,8-8s8,3.582,8,8v80 C232.098,336.467,228.517,340.049,224.098,340.049z"/><path style="fill:#fff" d="M368.098,388.049c-4.418,0-8-3.582-8-8v-16c0-4.418,3.582-8,8-8s8,3.582,8,8v16 C376.098,384.467,372.517,388.049,368.098,388.049z"/><path style="fill:#fff" d="M368.098,340.049c-4.418,0-8-3.582-8-8v-160c0-4.418,3.582-8,8-8s8,3.582,8,8v160 C376.098,336.467,372.517,340.049,368.098,340.049z"/></g></svg>