<svg id="Layer_1" enable-background="new 0 0 510 510" height="512" viewBox="0 0 510 510" width="512" xmlns="http://www.w3.org/2000/svg"><g><g><path d="m254 419.497 11-14-10-45.004-50.621-140.676-65.585-69.324h-108.794v269.004l94.412 10z" fill="#88b4f9"/><path d="m480 419.497v-269.004h-108.8l-66.435 71.475-49.765 138.525v59.004l120.018 11.118z" fill="#6b6fda"/><path d="m210 285.493v30c0 24.852 20.146 45 45 45l10-37.5-10-37.5-22.5-10z" fill="#447895"/><path d="m300 315.493c0-10.492 0-19.508 0-30l-22.5-10-22.5 10v75c.274-.059 17.548 1.093 31.819-13.18 8.144-8.144 13.181-19.394 13.181-31.82z" fill="#37617a"/><path d="m138.794 150.493c8.165 31.697 28.878 58.106 56.206 73.918v61.082h45l25-218.82-10-66.17c-74.011 0-136.256 72.142-116.206 149.99z" fill="#f9eb97"/><path d="m315 224.414c32.209-18.635 54.301-51.332 59.048-88.8 9.086-71.776-46.841-135.109-119.048-135.111v140.349l15 144.642h45c0-21.341 0-39.74 0-61.08z" fill="#f1cb30"/><path d="m45 60.497h45v30h-45z" fill="#f9eb97"/><path d="m420 60.497h45v30h-45z" fill="#f1cb30"/><path d="m210 120.497v30c16.542 0 30 13.458 30 30v105h15l10-75-10-69.646c-11.003-12.473-27.099-20.354-45-20.354z" fill="#f1cb30"/><path d="m255 140.852v144.645h15c0-21.898 0-82.477 0-105 0-16.542 13.458-30 30-30v-30c-17.901 0-33.997 7.881-45 20.355z" fill="#e48c21"/></g><g><path d="m255 509.497h-255v-90h255l10 47.471z" fill="#447895"/></g><g><path d="m510 509.497h-255v-90h255z" fill="#37617a"/></g></g></svg>