<svg xmlns="http://www.w3.org/2000/svg" xmlns:xlink="http://www.w3.org/1999/xlink" id="Capa_1" x="0" y="0" version="1.1" viewBox="0 0 349.1 349.1" xml:space="preserve" style="enable-background:new 0 0 349.1 349.1"><style type="text/css">.st0{fill:#fff}</style><g><path d="M150.3,26.6v58.3c0,7.9-6.4,14.3-14.3,14.3c-28.2,0-43.5,28.9-45.6,86H136c7.9,0,14.3,6.4,14.3,14.3v123 c0,7.9-6.4,14.3-14.3,14.3H14.3c-7.9,0-14.3-6.4-14.3-14.3v-123c0-27.4,2.8-52.5,8.2-74.6c5.6-22.7,14.1-42.6,25.4-59 c11.6-16.9,26.1-30.2,43.2-39.4c17.1-9.3,37.1-14,59.3-14C143.9,12.3,150.3,18.7,150.3,26.6z M334.8,99.2c7.9,0,14.3-6.4,14.3-14.3 V26.6c0-7.9-6.4-14.3-14.3-14.3c-22.2,0-42.1,4.7-59.2,14c-17,9.2-31.6,22.5-43.2,39.4c-11.3,16.5-19.8,36.3-25.4,59.1 c-5.4,22.2-8.2,47.3-8.2,74.6v123c0,7.9,6.4,14.3,14.3,14.3h121.7c7.9,0,14.3-6.4,14.3-14.3v-123c0-7.9-6.4-14.3-14.3-14.3h-45 C291.9,128.1,307,99.2,334.8,99.2z" class="st0"/></g></svg>