<svg xmlns="http://www.w3.org/2000/svg" xmlns:xlink="http://www.w3.org/1999/xlink" id="Capa_1" x="0" y="0" version="1.1" viewBox="0 0 512 512" xml:space="preserve" style="enable-background:new 0 0 512 512"><style type="text/css">.st0{fill:#33d3a5}</style><g><g><path d="M324.3,0c-4.7,0-8.5,3.8-8.5,8.5s3.8,8.5,8.5,8.5c94.1,0,170.7,76.6,170.7,170.7c0,4.7,3.8,8.5,8.5,8.5 c4.7,0,8.5-3.8,8.5-8.5C512,84.2,427.8,0,324.3,0z" class="st0"/></g></g><g><g><path d="M324.3,51.2c-4.7,0-8.5,3.8-8.5,8.5s3.8,8.5,8.5,8.5c65.9,0,119.5,53.6,119.5,119.5c0,4.7,3.8,8.5,8.5,8.5 c4.7,0,8.5-3.8,8.5-8.5C460.8,112.5,399.5,51.2,324.3,51.2z" class="st0"/></g></g><g><g><path d="M324.3,102.4c-4.7,0-8.5,3.8-8.5,8.5s3.8,8.5,8.5,8.5c37.6,0,68.3,30.6,68.3,68.3c0,4.7,3.8,8.5,8.5,8.5 c4.7,0,8.5-3.8,8.5-8.5C409.6,140.7,371.3,102.4,324.3,102.4z" class="st0"/></g></g><g><g><path d="M461.8,320.2c-23.2-3.1-46.1-8.8-68-16.9c-21.2-8-45.4-2.8-61.5,13.1l-27,26.9 c-56.6-33.3-103.8-80.5-137.2-137l27-26.9c16-16.1,21.1-40.2,13.1-61.4c-8.2-21.9-13.9-44.7-17-68c-4.1-28.8-29-50.2-58.2-50.1 H58.3c-1.7,0-3.5,0.1-5.2,0.2C37.5,1.6,23.5,9,13.5,20.9C3.6,32.9-1.2,48,0.2,63.6c8.3,77.7,35.1,153.5,77.7,219 c38.6,60.7,91.2,113.1,151.9,151.6c65.4,42.3,141,69.2,218.6,77.6c1.8,0.2,3.5,0.2,5.3,0.2c0.1,0,0.1,0,0.2,0 c32.2-0.1,58.2-26.4,58.1-58.4v-74.4C512.7,349.7,491.1,324.3,461.8,320.2z M494.9,378.9c0,0.1,0,0.1,0,0.2v74.5 c0.1,22.7-18.3,41.2-41.1,41.3c-1.3-0.1-2.6-0.1-3.7-0.2c-74.9-8.1-147.8-34-211.1-75C180.3,382.6,129.6,332,92.3,273.4 C51.2,210,25.2,136.8,17.2,61.9c-1-10.9,2.3-21.6,9.4-30s17-13.6,28-14.6c1.2-0.1,2.4-0.2,3.7-0.2H133c0.1,0,0.3,0,0.4,0 c20.4,0,38,15.1,40.8,35.3c3.2,24.4,9.3,48.6,17.9,71.7c5.6,15,2,32-9.2,43.4l-31.6,31.5c-2.7,2.7-3.3,6.9-1.4,10.3 c36.2,63.5,88.9,116.1,152.5,152.2c3.3,1.9,7.5,1.3,10.2-1.4l31.6-31.5c11.4-11.3,28.5-14.9,43.5-9.3 c23.1,8.6,47.3,14.6,71.7,17.8C480.2,340,495.4,358,494.9,378.9z" class="st0"/></g></g><g><g><path d="M128,34.1H58.3c-0.7,0-1.4,0-2.1,0.1c-8.7,0.8-14,5.7-16.4,8.6c-1.9,2.3-6.3,8.6-5.5,17.2 c3.2,30.3,9.1,59.7,17.4,87.5c1.1,3.7,4.5,6.1,8.2,6.1c0.8,0,1.6-0.1,2.4-0.4c4.5-1.3,7.1-6.1,5.7-10.6 c-8-26.8-13.6-55.2-16.7-84.3c-0.2-2.2,1.2-4,1.6-4.6c0.7-0.8,2.3-2.3,5.4-2.5H128c0,0,0,0,0,0c4.7,0,8.5-3.8,8.5-8.5 C136.5,38,132.7,34.1,128,34.1z" class="st0"/></g></g><g><g><path d="M469.3,375.5c-4.7,0-8.5,3.8-8.5,8.5l0,69.6c0,1.9-0.7,3.7-2.1,5.1s-3.1,2.1-4.8,2.1l-0.8,0 c-29.2-3.2-57.3-8.8-83.7-16.7c-4.5-1.4-9.3,1.2-10.6,5.7s1.2,9.3,5.7,10.6c27.4,8.2,56.6,14,87,17.3c0.7,0.1,2.1,0.1,2.3,0.1 c6.5,0,12.5-2.6,17.1-7.1c4.5-4.6,7-10.7,7-17.1l0-69.6C477.9,379.3,474,375.5,469.3,375.5z" class="st0"/></g></g></svg>