<svg xmlns="http://www.w3.org/2000/svg" xmlns:xlink="http://www.w3.org/1999/xlink" id="Layer_1" x="0" y="0" version="1.1" viewBox="0 0 128 128" xml:space="preserve" style="enable-background:new 0 0 128 128"><style type="text/css">.st0{fill-rule:evenodd;clip-rule:evenodd;fill:#d3d3d3}</style><path d="M64.1,126.2c34.3-0.1,62-27.9,62-62.3c0-33.8-27.6-61.7-60.6-62.3C30.9,1,1.9,29.1,1.9,63.2	C1.9,98.3,29.5,126.3,64.1,126.2z M64,4.6c32.9,0,59.1,26.7,59.1,60.3c0,31.7-26.9,58.2-59.1,58.2c-32.8,0-59.1-26.6-59.1-59.6	C4.9,31.3,31.7,4.6,64,4.6z M39.2,35.9c0.5,1.8-1,2.4-2.6,2.5c-1.7,0.1-3.4,0.3-5.3,0.4C37.7,58.1,44.1,77,50.6,96.4	c0.5-0.8,0.7-1,0.7-1.2c3.6-10.7,7.2-21.4,10.7-32.1c0.3-1,0.2-2.3-0.2-3.3c-1.8-5.3-4.1-10.5-5.7-15.9c-1.1-3.7-2.6-6.1-6.9-5.6	c-0.7,0.1-1.6-1.5-2.5-2.3c1-0.6,2-1.7,3-1.7c8.9-0.1,17.7-0.1,26.6,0c1,0,2,1.2,3,1.8c-0.9,0.8-1.6,2-2.7,2.3	c-1.7,0.5-3.5,0.4-5.5,0.6C77.7,58.1,84,77,90.6,96.5c2.9-9.7,5.7-18.7,8.3-27.6c2.4-8,1-15.5-3.3-22.5c-1.3-2.1-2.9-4.2-3.6-6.5	c-0.8-2.6-1.5-5.6-1.1-8.3c0.7-4.5,4.2-6.7,8.8-7.1C74.3,0.9,34.4,9.3,19.7,34.9c5.7-0.3,11.1-0.6,16.5-0.7	C37.2,34.2,38.9,35.1,39.2,35.9L39.2,35.9z M49.3,113.9c-0.1,0.3-0.1,0.7-0.2,1.3c10.9,3,21.7,2.8,32.7-0.9l-16.8-46	C59.6,83.9,54.4,98.9,49.3,113.9z M40.8,111.8L15.5,42.4C4.1,64.7,12.8,98.7,40.8,111.8z M117.2,67.2c0.8-10.5-2.8-25.1-6-27.1	c-0.3,3.9-0.1,8.2-1.2,12.1c-2.6,9.3-5.8,18.3-8.9,27.5c-3.3,9.9-6.8,19.8-10.3,29.7C107,99.8,115.8,85.7,117.2,67.2z" class="st0"/></svg>